<?xml version="1.0" encoding="UTF-8" standalone="no"?>
<svg
   xmlns:dc="http://purl.org/dc/elements/1.1/"
   xmlns:cc="http://creativecommons.org/ns#"
   xmlns:rdf="http://www.w3.org/1999/02/22-rdf-syntax-ns#"
   xmlns:svg="http://www.w3.org/2000/svg"
   xmlns="http://www.w3.org/2000/svg"
   viewBox="0 0 750.47998 63.186668"
   height="63.186668"
   width="750.47998"
   xml:space="preserve"
   id="svg2"
   version="1.1"><metadata
     id="metadata8"><rdf:RDF><cc:Work
         rdf:about=""><dc:format>image/svg+xml</dc:format><dc:type
           rdf:resource="http://purl.org/dc/dcmitype/StillImage" /></cc:Work></rdf:RDF></metadata><defs
     id="defs6" /><g
     transform="matrix(1.3333333,0,0,-1.3333333,0,63.186667)"
     id="g10"><g
       transform="scale(0.1)"
       id="g12"><path
         id="path14"
         style="fill:#277ac8;fill-opacity:1;fill-rule:nonzero;stroke:none"
         d="M 363.375,247.973 H 193.91 v 40.922 h 169.465 c 20.02,0 28.465,-7.118 28.465,-20.012 0,-13.789 -8.445,-20.91 -28.465,-20.91 z M 193.91,391.641 h 170.801 c 12.902,0 25.801,-4.45 25.801,-19.125 0,-15.125 -12.461,-20.016 -25.801,-20.016 H 193.91 Z m 243.301,-67.164 c 20.461,7.562 40.48,27.132 40.48,62.269 0,54.715 -45.812,82.293 -116.984,82.293 H 62.2695 L 0.00390625,391.641 H 101.391 V 352.5 336.199 171.469 h 261.543 c 93.847,0 120.988,37.363 120.988,86.734 0,35.586 -20.91,58.715 -46.711,66.274" /><path
         id="path16"
         style="fill:#277ac8;fill-opacity:1;fill-rule:nonzero;stroke:none"
         d="m 875.719,247.973 -59.16,-76.504 H 530.113 v 297.57 H 874.828 L 815.219,391.641 H 622.621 V 356.059 H 858.363 L 805.434,288.453 H 622.621 v -40.48 h 253.098" /><path
         id="path18"
         style="fill:#277ac8;fill-opacity:1;fill-rule:nonzero;stroke:none"
         d="m 1372.01,358.281 c 26.25,-45.812 37.81,-68.051 48.03,-88.957 9.79,20.906 21.36,42.703 47.6,88.512 l 47.59,84.512 c 10.68,19.125 26.69,31.582 50.71,31.582 23.13,0 43.59,-13.344 51.59,-40.922 l 75.18,-261.539 h -91.63 l -28.02,103.636 c -9.34,33.805 -15.57,57.825 -20.47,81.844 -9.78,-20.906 -20.9,-43.59 -41.35,-82.285 l -40.04,-74.726 c -15.57,-29.356 -30.69,-33.36 -52.93,-33.36 -22.24,0 -37.37,4.004 -52.93,33.36 l -40.03,75.167 c -21.8,40.918 -32.47,61.829 -41.81,81.844 -4.45,-23.574 -11.12,-48.484 -20.02,-81.844 l -28.03,-103.636 h -90.29 l 76.95,261.539 c 8.01,27.578 28.92,40.922 52.05,40.922 23.57,0 39.59,-12.012 50.26,-31.582 l 47.59,-84.067" /><path
         id="path20"
         style="fill:#277ac8;fill-opacity:1;fill-rule:nonzero;stroke:none"
         d="m 2043.13,320.473 c 0,64.054 -33.36,76.058 -125.88,76.058 -92.52,0 -125.88,-12.004 -125.88,-76.058 0,-64.047 33.36,-76.504 125.88,-76.504 92.52,0 125.88,12.457 125.88,76.504 z m 91.63,0 c 0,-106.301 -72.95,-153.895 -217.51,-153.895 -145,0 -217.5,47.594 -217.5,153.895 0,106.308 72.5,153.457 217.5,153.457 144.56,0 217.51,-47.149 217.51,-153.457" /><path
         id="path22"
         style="fill:#277ac8;fill-opacity:1;fill-rule:nonzero;stroke:none"
         d="m 2551.02,469.039 -59.61,-77.398 h -106.3 V 171.469 h -92.08 v 220.172 h -139.66 l 59.6,77.398 h 338.05" /><path
         id="path24"
         style="fill:#277ac8;fill-opacity:1;fill-rule:nonzero;stroke:none"
         d="m 2870.79,320.473 c 0,64.054 -33.36,76.058 -125.88,76.058 -92.52,0 -125.88,-12.004 -125.88,-76.058 0,-64.047 33.36,-76.504 125.88,-76.504 92.52,0 125.88,12.457 125.88,76.504 z m 91.62,0 c 0,-106.301 -72.94,-153.895 -217.5,-153.895 -145.01,0 -217.51,47.594 -217.51,153.895 0,106.308 72.5,153.457 217.51,153.457 144.56,0 217.5,-47.149 217.5,-153.457" /><path
         id="path26"
         style="fill:#277ac8;fill-opacity:1;fill-rule:nonzero;stroke:none"
         d="m 3431.16,171.469 h -123.21 l -66.28,78.73 h -141.43 v -78.73 h -92.08 V 323.59 h 258.88 c 28.46,0 50.7,12.898 50.7,33.359 0,23.129 -19.13,34.692 -50.7,34.692 h -258.88 l 60.05,77.398 h 191.26 c 67.61,0 153.01,-21.355 153.01,-106.309 0,-46.257 -28.91,-84.511 -77.84,-94.296 10.23,-7.559 21.35,-18.235 41.81,-39.141 l 54.71,-57.824" /><path
         id="path28"
         style="fill:#277ac8;fill-opacity:1;fill-rule:nonzero;stroke:none"
         d="m 3739.79,350.277 c 72.5,0 111.64,-27.132 111.64,-81.394 0,-60.938 -36.92,-97.414 -127.66,-97.414 h -277.1 l 59.16,76.504 h 225.06 c 21.79,0 31.58,6.226 31.58,21.797 0,15.121 -9.79,21.347 -31.58,21.347 h -161.9 c -76.51,0 -111.65,34.25 -111.65,85.403 0,56.043 37.36,92.519 127.66,92.519 h 258.42 l -59.16,-77.398 h -206.38 c -21.35,0 -31.58,-5.336 -31.58,-20.461 0,-15.121 10.23,-20.903 31.58,-20.903 h 161.91" /><path
         id="path30"
         style="fill:#277ac8;fill-opacity:1;fill-rule:nonzero;stroke:none"
         d="M 4138.71,247.527 H 3983.03 V 171.469 H 3891.4 V 323.59 h 256.2 c 28.47,0 44.93,13.789 44.93,34.246 0,20.91 -16.46,33.805 -44.93,33.805 h -256.2 l 60.94,77.398 h 186.82 c 92.07,0 145.88,-45.371 145.88,-111.648 0,-65.828 -53.81,-109.864 -146.33,-109.864" /><path
         id="path32"
         style="fill:#277ac8;fill-opacity:1;fill-rule:nonzero;stroke:none"
         d="m 4665.73,320.473 c 0,64.054 -33.36,76.058 -125.88,76.058 -92.51,0 -125.87,-12.004 -125.87,-76.058 0,-64.047 33.36,-76.504 125.87,-76.504 92.52,0 125.88,12.457 125.88,76.504 z m 91.63,0 c 0,-106.301 -72.95,-153.895 -217.51,-153.895 -145,0 -217.5,47.594 -217.5,153.895 0,106.308 72.5,153.457 217.5,153.457 144.56,0 217.51,-47.149 217.51,-153.457" /><path
         id="path34"
         style="fill:#277ac8;fill-opacity:1;fill-rule:nonzero;stroke:none"
         d="m 5226.1,171.469 h -123.2 l -66.28,78.73 h -141.44 v -78.73 H 4803.1 V 323.59 h 258.88 c 28.46,0 50.7,12.898 50.7,33.359 0,23.129 -19.13,34.692 -50.7,34.692 H 4803.1 l 60.05,77.398 h 191.26 c 67.61,0 153.01,-21.355 153.01,-106.309 0,-46.257 -28.91,-84.511 -77.84,-94.296 10.23,-7.559 21.35,-18.235 41.81,-39.141 l 54.71,-57.824" /><path
         id="path36"
         style="fill:#277ac8;fill-opacity:1;fill-rule:nonzero;stroke:none"
         d="m 5628.58,469.039 -59.6,-77.398 H 5462.67 V 171.469 h -92.07 v 220.172 h -139.67 l 59.6,77.398 h 338.05" /><path
         id="path38"
         style="fill:#231f20;fill-opacity:1;fill-rule:nonzero;stroke:none"
         d="m 1750.42,19.5781 h -38.83 c -4.77,0 -8.11,0.9688 -10.01,2.9102 -1.91,1.9453 -2.86,5.2656 -2.86,9.9609 v 25.9571 c 0,4.6992 0.95,8.0195 2.86,9.9609 1.9,1.9336 5.24,2.9101 10.01,2.9101 h 38.83 v -5.0585 h -37.95 c -3.01,0 -4.52,-1.5821 -4.52,-4.7266 V 29.3633 c 0,-3.1445 1.51,-4.7266 4.52,-4.7266 h 37.95 v -5.0586" /><path
         id="path40"
         style="fill:#231f20;fill-opacity:1;fill-rule:nonzero;stroke:none"
         d="m 1854.48,63.4648 c -5.43,0.8125 -9.76,1.211 -12.98,1.211 h -9.24 c -2.94,0 -4.4,-1.5313 -4.4,-4.6172 V 19.5781 h -9.24 v 51.6992 h 8.69 v -4.8437 h 0.21 c 0.81,3.2344 3.09,4.8437 6.83,4.8437 h 20.13 v -7.8125" /><path
         id="path42"
         style="fill:#231f20;fill-opacity:1;fill-rule:nonzero;stroke:none"
         d="m 1970.42,47.3047 v 14.1875 c 0,3.1445 -1.51,4.7266 -4.52,4.7266 h -30.47 c -3,0 -4.51,-1.5821 -4.51,-4.7266 V 47.3047 Z m 9.23,-5.0703 h -48.73 V 29.3633 c 0,-3.1445 1.51,-4.7266 4.51,-4.7266 h 43.13 v -5.0586 h -44 c -4.77,0 -8.11,0.9688 -10.01,2.9102 -1.91,1.9453 -2.87,5.2656 -2.87,9.9609 v 25.9571 c 0,4.6992 0.96,8.0195 2.87,9.9609 1.9,1.9336 5.24,2.9101 10.01,2.9101 h 32.22 c 4.77,0 8.11,-0.9765 10.01,-2.9101 1.92,-1.9414 2.86,-5.2617 2.86,-9.9609 V 42.2344" /><path
         id="path44"
         style="fill:#231f20;fill-opacity:1;fill-rule:nonzero;stroke:none"
         d="m 2094.38,29.9219 v 19.3554 h -33.77 c -3.01,0 -4.5,-1.5742 -4.5,-4.7265 V 29.3633 c 0,-3.1445 1.49,-4.7266 4.5,-4.7266 h 29.27 c 1.76,0 2.95,0.3906 3.57,1.1524 0.62,0.7734 0.93,2.1484 0.93,4.1328 z m 9.25,-10.3438 h -8.8 v 3.3008 h -0.45 c -0.65,-2.1953 -2.22,-3.3008 -4.71,-3.3008 h -30 c -4.74,0 -8.06,0.9688 -9.96,2.9102 -1.89,1.9453 -2.85,5.2656 -2.85,9.9609 v 9.0235 c 0,4.6875 0.96,8.0078 2.86,9.9531 1.91,1.9414 5.25,2.9101 10.01,2.9101 h 34.65 v 6.9336 c 0,1.836 -0.31,3.1133 -0.93,3.8477 -0.62,0.7305 -1.81,1.1016 -3.57,1.1016 h -40.93 v 5.0585 h 41.7 c 4.77,0 8.11,-0.9765 10.06,-2.9101 1.94,-1.9414 2.92,-5.3008 2.92,-10.0664 V 19.5781" /><path
         id="path46"
         style="fill:#231f20;fill-opacity:1;fill-rule:nonzero;stroke:none"
         d="m 2216.26,19.5781 h -24.97 c -4.39,0 -7.6,0.9375 -9.62,2.8047 -2.02,1.875 -3.02,5.1563 -3.02,9.8438 v 33.9922 h -8.03 v 5.0585 h 8.03 v 10.2344 l 9.24,1.7578 V 71.2773 h 25.74 v -5.0585 h -25.74 V 29.4805 c 0,-3.2305 1.46,-4.8438 4.4,-4.8438 h 23.97 v -5.0586" /><path
         id="path48"
         style="fill:#231f20;fill-opacity:1;fill-rule:nonzero;stroke:none"
         d="m 2330.99,47.3047 v 14.1875 c 0,3.1445 -1.5,4.7266 -4.51,4.7266 h -30.47 c -3.01,0 -4.51,-1.5821 -4.51,-4.7266 V 47.3047 Z m 9.24,-5.0703 H 2291.5 V 29.3633 c 0,-3.1445 1.5,-4.7266 4.51,-4.7266 h 43.13 v -5.0586 h -44.01 c -4.76,0 -8.1,0.9688 -10.01,2.9102 -1.9,1.9453 -2.86,5.2656 -2.86,9.9609 v 25.9571 c 0,4.6992 0.96,8.0195 2.86,9.9609 1.91,1.9336 5.25,2.9101 10.01,2.9101 h 32.23 c 4.76,0 8.1,-0.9765 10.01,-2.9101 1.91,-1.9414 2.86,-5.2617 2.86,-9.9609 V 42.2344" /><path
         id="path50"
         style="fill:#231f20;fill-opacity:1;fill-rule:nonzero;stroke:none"
         d="m 2562.65,12.8711 c 0,-4.69922 -0.96,-8.00782 -2.86,-9.94922 C 2557.89,0.976563 2554.55,0 2549.78,0 h -43.99 v 5.05859 h 43.11 c 3.01,0 4.51,1.58204 4.51,4.73829 V 21.2305 c -1.1,-1.1016 -2.86,-1.6524 -5.28,-1.6524 h -30.24 c -4.7,0 -7.98,1.0078 -9.85,3.0274 -1.87,2.0117 -2.81,5.2265 -2.81,9.6211 v 39.0507 h 9.24 v -41.25 c 0,-2.9296 0.7,-4.6171 2.1,-5.0585 0.58,-0.2227 1.38,-0.3321 2.41,-0.3321 h 30.03 c 2.94,0 4.4,1.6524 4.4,4.9531 v 41.6875 h 9.24 V 12.8711" /><path
         id="path52"
         style="fill:#231f20;fill-opacity:1;fill-rule:nonzero;stroke:none"
         d="m 2679.58,29.3633 v 32.1289 c 0,3.1445 -1.5,4.7266 -4.51,4.7266 h -30.47 c -3,0 -4.51,-1.5821 -4.51,-4.7266 V 29.3633 c 0,-3.1445 1.51,-4.7266 4.51,-4.7266 h 30.47 c 3.01,0 4.51,1.5821 4.51,4.7266 z m 9.24,3.0859 c 0,-4.6953 -0.95,-8.0156 -2.86,-9.9609 -1.9,-1.9414 -5.24,-2.9102 -10.01,-2.9102 h -32.22 c -4.78,0 -8.11,0.9688 -10.01,2.9102 -1.92,1.9453 -2.87,5.2656 -2.87,9.9609 v 25.9571 c 0,4.6992 0.95,8.0195 2.87,9.9609 1.9,1.9336 5.23,2.9101 10.01,2.9101 h 32.22 c 4.77,0 8.11,-0.9765 10.01,-2.9101 1.91,-1.9414 2.86,-5.2617 2.86,-9.9609 V 32.4492" /><path
         id="path54"
         style="fill:#231f20;fill-opacity:1;fill-rule:nonzero;stroke:none"
         d="m 2814.56,19.5781 h -8.8 v 3.7422 c -0.6,-2.4922 -2.44,-3.7422 -5.53,-3.7422 h -30.5 c -4.72,0 -8.02,1.0078 -9.89,3.0274 -1.88,2.0117 -2.81,5.2265 -2.81,9.6211 v 39.0507 h 9.23 v -41.25 c 0,-2.9296 0.7,-4.6171 2.09,-5.0585 0.59,-0.2227 1.39,-0.3321 2.43,-0.3321 h 30.13 c 2.93,0 4.4,1.6524 4.4,4.9531 v 41.6875 h 9.25 V 19.5781" /><path
         id="path56"
         style="fill:#231f20;fill-opacity:1;fill-rule:nonzero;stroke:none"
         d="m 2919.71,63.4648 c -5.43,0.8125 -9.75,1.211 -12.99,1.211 h -9.23 c -2.93,0 -4.4,-1.5313 -4.4,-4.6172 V 19.5781 h -9.24 v 51.6992 h 8.68 v -4.8437 h 0.23 c 0.8,3.2344 3.07,4.8437 6.82,4.8437 h 20.13 v -7.8125" /><path
         id="path58"
         style="fill:#231f20;fill-opacity:1;fill-rule:nonzero;stroke:none"
         d="m 3132.34,29.3633 v 32.1289 c 0,3.1445 -1.51,4.7266 -4.51,4.7266 h -29.26 c -3.01,0 -4.51,-1.5821 -4.51,-4.7266 V 29.3633 c 0,-3.1445 1.5,-4.7266 4.51,-4.7266 h 29.26 c 3,0 4.51,1.5821 4.51,4.7266 z m 9.24,3.0859 c 0,-4.6953 -0.96,-8.0156 -2.86,-9.9609 -1.91,-1.9414 -5.25,-2.9102 -10.01,-2.9102 h -28.05 c -4.34,0 -6.64,1.5078 -6.93,4.5117 h -0.23 v -4.5117 h -8.68 v 70.4024 h 9.24 V 67.7617 c 0.81,2.3438 3.02,3.5156 6.63,3.5156 h 27.96 c 4.78,0 8.13,-0.9765 10.06,-2.9101 1.91,-1.9414 2.87,-5.2617 2.87,-9.9609 V 32.4492" /><path
         id="path60"
         style="fill:#231f20;fill-opacity:1;fill-rule:nonzero;stroke:none"
         d="m 3267.31,19.5781 h -8.8 v 3.7422 c -0.59,-2.4922 -2.44,-3.7422 -5.53,-3.7422 h -30.49 c -4.72,0 -8.02,1.0078 -9.9,3.0274 -1.87,2.0117 -2.81,5.2265 -2.81,9.6211 v 39.0507 h 9.24 v -41.25 c 0,-2.9296 0.69,-4.6171 2.09,-5.0585 0.58,-0.2227 1.39,-0.3321 2.42,-0.3321 h 30.14 c 2.93,0 4.39,1.6524 4.39,4.9531 v 41.6875 h 9.25 V 19.5781" /><path
         id="path62"
         style="fill:#231f20;fill-opacity:1;fill-rule:nonzero;stroke:none"
         d="m 3389.97,28.3789 c 0,-5.8711 -4.3,-8.8008 -12.88,-8.8008 h -41.58 v 5.0586 h 40.71 c 2.99,0 4.5,1.5821 4.5,4.7266 v 8.1445 c 0,3.1563 -1.51,4.7266 -4.5,4.7266 h -27.84 c -4.76,0 -8.1,0.9765 -10.01,2.9219 -1.91,1.9414 -2.86,5.2656 -2.86,9.9492 v 3.3008 c 0,4.6992 0.95,8.0195 2.86,9.9609 1.91,1.9336 5.25,2.9101 10.01,2.9101 h 41.59 v -5.0585 h -40.71 c -3.01,0 -4.51,-1.5821 -4.51,-4.7266 v -5.5078 c 0,-3.1524 1.5,-4.7266 4.51,-4.7266 h 27.83 c 4.77,0 8.1,-0.9765 10.01,-2.9101 1.91,-1.9532 2.87,-5.2618 2.87,-9.961 V 28.3789" /><path
         id="path64"
         style="fill:#231f20;fill-opacity:1;fill-rule:nonzero;stroke:none"
         d="m 3467.4,19.5781 h -9.24 v 51.6992 h 9.24 z m 0,58.0782 h -9.24 v 7.4804 h 9.24 v -7.4804" /><path
         id="path66"
         style="fill:#231f20;fill-opacity:1;fill-rule:nonzero;stroke:none"
         d="m 3594.23,19.5781 h -9.24 v 41.25 c 0,2.9297 -0.7,4.6211 -2.09,5.0586 -0.59,0.2266 -1.39,0.3321 -2.42,0.3321 h -30.14 c -2.93,0 -4.4,-1.6485 -4.4,-4.9493 V 19.5781 h -9.24 v 51.6992 h 9.68 v -3.7382 h 0.22 c 1.61,2.4882 3.55,3.7382 5.83,3.7382 h 29.15 c 4.69,0 7.98,-1.0039 9.84,-3.0234 1.88,-2.0156 2.81,-5.2266 2.81,-9.6211 V 19.5781" /><path
         id="path68"
         style="fill:#231f20;fill-opacity:1;fill-rule:nonzero;stroke:none"
         d="m 3711.16,47.3047 v 14.1875 c 0,3.1445 -1.51,4.7266 -4.51,4.7266 h -30.47 c -3.01,0 -4.51,-1.5821 -4.51,-4.7266 V 47.3047 Z m 9.24,-5.0703 h -48.73 V 29.3633 c 0,-3.1445 1.5,-4.7266 4.51,-4.7266 h 43.11 v -5.0586 h -43.99 c -4.77,0 -8.11,0.9688 -10.01,2.9102 -1.92,1.9453 -2.86,5.2656 -2.86,9.9609 v 25.9571 c 0,4.6992 0.94,8.0195 2.86,9.9609 1.9,1.9336 5.24,2.9101 10.01,2.9101 h 32.22 c 4.77,0 8.11,-0.9765 10.01,-2.9101 1.91,-1.9414 2.87,-5.2617 2.87,-9.9609 V 42.2344" /><path
         id="path70"
         style="fill:#231f20;fill-opacity:1;fill-rule:nonzero;stroke:none"
         d="m 3841.95,28.3789 c 0,-5.8711 -4.3,-8.8008 -12.87,-8.8008 h -41.58 v 5.0586 h 40.7 c 3,0 4.5,1.5821 4.5,4.7266 v 8.1445 c 0,3.1563 -1.5,4.7266 -4.5,4.7266 h -27.83 c -4.77,0 -8.11,0.9765 -10.01,2.9219 -1.92,1.9414 -2.86,5.2656 -2.86,9.9492 v 3.3008 c 0,4.6992 0.94,8.0195 2.86,9.9609 1.9,1.9336 5.24,2.9101 10.01,2.9101 h 41.58 v -5.0585 h -40.7 c -3.01,0 -4.52,-1.5821 -4.52,-4.7266 v -5.5078 c 0,-3.1524 1.51,-4.7266 4.52,-4.7266 h 27.83 c 4.76,0 8.09,-0.9765 10.01,-2.9101 1.9,-1.9532 2.86,-5.2618 2.86,-9.961 V 28.3789" /><path
         id="path72"
         style="fill:#231f20;fill-opacity:1;fill-rule:nonzero;stroke:none"
         d="m 3963.5,28.3789 c 0,-5.8711 -4.3,-8.8008 -12.87,-8.8008 h -41.58 v 5.0586 h 40.7 c 3,0 4.5,1.5821 4.5,4.7266 v 8.1445 c 0,3.1563 -1.5,4.7266 -4.5,4.7266 h -27.83 c -4.77,0 -8.11,0.9765 -10.01,2.9219 -1.91,1.9414 -2.86,5.2656 -2.86,9.9492 v 3.3008 c 0,4.6992 0.95,8.0195 2.86,9.9609 1.9,1.9336 5.24,2.9101 10.01,2.9101 h 41.58 v -5.0585 h -40.7 c -3.01,0 -4.51,-1.5821 -4.51,-4.7266 v -5.5078 c 0,-3.1524 1.5,-4.7266 4.51,-4.7266 h 27.83 c 4.77,0 8.1,-0.9765 10.01,-2.9101 1.9,-1.9532 2.86,-5.2618 2.86,-9.961 V 28.3789" /><path
         id="path74"
         style="fill:#231f20;fill-opacity:1;fill-rule:nonzero;stroke:none"
         d="m 4176.12,47.3047 v 14.1875 c 0,3.1445 -1.51,4.7266 -4.51,4.7266 h -30.47 c -3.01,0 -4.51,-1.5821 -4.51,-4.7266 V 47.3047 Z m 9.24,-5.0703 h -48.73 V 29.3633 c 0,-3.1445 1.5,-4.7266 4.51,-4.7266 h 43.11 v -5.0586 h -43.99 c -4.77,0 -8.11,0.9688 -10.01,2.9102 -1.92,1.9453 -2.86,5.2656 -2.86,9.9609 v 25.9571 c 0,4.6992 0.94,8.0195 2.86,9.9609 1.9,1.9336 5.24,2.9101 10.01,2.9101 h 32.23 c 4.76,0 8.1,-0.9765 10.01,-2.9101 1.9,-1.9414 2.86,-5.2617 2.86,-9.9609 V 42.2344" /><path
         id="path76"
         style="fill:#231f20;fill-opacity:1;fill-rule:nonzero;stroke:none"
         d="m 4309.65,19.5781 h -11.66 l -18.14,20.8985 -19.7,-20.8985 h -7.69 l 23.86,25.1875 -22.76,26.5117 h 11.87 l 17.16,-20.0195 19.04,20.0195 h 7.58 l -23.09,-24.1992 23.53,-27.5" /><path
         id="path78"
         style="fill:#231f20;fill-opacity:1;fill-rule:nonzero;stroke:none"
         d="m 4425.27,29.3633 v 32.1289 c 0,3.1445 -1.51,4.7266 -4.51,4.7266 h -29.26 c -3.01,0 -4.51,-1.5821 -4.51,-4.7266 V 29.3633 c 0,-3.1445 1.5,-4.7266 4.51,-4.7266 h 29.26 c 3,0 4.51,1.5821 4.51,4.7266 z m 9.24,3.0859 c 0,-4.6953 -0.96,-8.0156 -2.87,-9.9609 -1.93,-1.9414 -5.28,-2.9102 -10.06,-2.9102 h -27.96 c -3.62,0 -5.82,1.1758 -6.63,3.5157 V 0.878906 h -9.24 V 71.2773 h 8.68 v -4.5117 h 0.23 c 0.29,3.0078 2.59,4.5117 6.93,4.5117 h 28.05 c 4.76,0 8.1,-0.9765 10.01,-2.9101 1.9,-1.9414 2.86,-5.2617 2.86,-9.9609 V 32.4492" /><path
         id="path80"
         style="fill:#231f20;fill-opacity:1;fill-rule:nonzero;stroke:none"
         d="m 4550.34,47.3047 v 14.1875 c 0,3.1445 -1.51,4.7266 -4.51,4.7266 h -30.47 c -3.01,0 -4.52,-1.5821 -4.52,-4.7266 V 47.3047 Z m 9.24,-5.0703 h -48.74 V 29.3633 c 0,-3.1445 1.51,-4.7266 4.52,-4.7266 h 43.11 v -5.0586 h -43.99 c -4.77,0 -8.11,0.9688 -10.01,2.9102 -1.92,1.9453 -2.86,5.2656 -2.86,9.9609 v 25.9571 c 0,4.6992 0.94,8.0195 2.86,9.9609 1.9,1.9336 5.24,2.9101 10.01,2.9101 h 32.22 c 4.77,0 8.11,-0.9765 10.01,-2.9101 1.91,-1.9414 2.87,-5.2617 2.87,-9.9609 V 42.2344" /><path
         id="path82"
         style="fill:#231f20;fill-opacity:1;fill-rule:nonzero;stroke:none"
         d="m 4663.64,63.4648 c -5.43,0.8125 -9.76,1.211 -12.99,1.211 h -9.24 c -2.93,0 -4.39,-1.5313 -4.39,-4.6172 V 19.5781 h -9.24 v 51.6992 h 8.68 v -4.8437 h 0.22 c 0.81,3.2344 3.08,4.8437 6.82,4.8437 h 20.14 v -7.8125" /><path
         id="path84"
         style="fill:#231f20;fill-opacity:1;fill-rule:nonzero;stroke:none"
         d="m 4741.19,19.5781 h -9.24 v 51.6992 h 9.24 z m 0,58.0782 h -9.24 v 7.4804 h 9.24 v -7.4804" /><path
         id="path86"
         style="fill:#231f20;fill-opacity:1;fill-rule:nonzero;stroke:none"
         d="m 4858.12,47.3047 v 14.1875 c 0,3.1445 -1.5,4.7266 -4.51,4.7266 h -30.47 c -3.01,0 -4.51,-1.5821 -4.51,-4.7266 V 47.3047 Z m 9.24,-5.0703 h -48.73 V 29.3633 c 0,-3.1445 1.5,-4.7266 4.51,-4.7266 h 43.11 v -5.0586 h -43.99 c -4.76,0 -8.1,0.9688 -10.01,2.9102 -1.91,1.9453 -2.86,5.2656 -2.86,9.9609 v 25.9571 c 0,4.6992 0.95,8.0195 2.86,9.9609 1.91,1.9336 5.25,2.9101 10.01,2.9101 h 32.23 c 4.76,0 8.1,-0.9765 10.01,-2.9101 1.9,-1.9414 2.86,-5.2617 2.86,-9.9609 V 42.2344" /><path
         id="path88"
         style="fill:#231f20;fill-opacity:1;fill-rule:nonzero;stroke:none"
         d="m 4993.09,19.5781 h -9.25 v 41.25 c 0,2.9297 -0.69,4.6211 -2.09,5.0586 -0.58,0.2266 -1.38,0.3321 -2.41,0.3321 h -30.15 c -2.93,0 -4.39,-1.6485 -4.39,-4.9493 V 19.5781 h -9.24 v 51.6992 h 9.68 v -3.7382 h 0.21 c 1.62,2.4882 3.56,3.7382 5.83,3.7382 h 29.15 c 4.7,0 7.98,-1.0039 9.85,-3.0234 1.87,-2.0156 2.81,-5.2266 2.81,-9.6211 V 19.5781" /><path
         id="path90"
         style="fill:#231f20;fill-opacity:1;fill-rule:nonzero;stroke:none"
         d="m 5112.98,19.5781 h -38.82 c -4.77,0 -8.11,0.9688 -10.01,2.9102 -1.92,1.9453 -2.87,5.2656 -2.87,9.9609 v 25.9571 c 0,4.6992 0.95,8.0195 2.87,9.9609 1.9,1.9336 5.24,2.9101 10.01,2.9101 h 38.82 v -5.0585 h -37.95 c -3,0 -4.51,-1.5821 -4.51,-4.7266 V 29.3633 c 0,-3.1445 1.51,-4.7266 4.51,-4.7266 h 37.95 v -5.0586" /><path
         id="path92"
         style="fill:#231f20;fill-opacity:1;fill-rule:nonzero;stroke:none"
         d="m 5228.81,47.3047 v 14.1875 c 0,3.1445 -1.5,4.7266 -4.51,4.7266 h -30.47 c -3,0 -4.51,-1.5821 -4.51,-4.7266 V 47.3047 Z m 9.24,-5.0703 h -48.73 V 29.3633 c 0,-3.1445 1.51,-4.7266 4.51,-4.7266 h 43.12 v -5.0586 h -44 c -4.76,0 -8.1,0.9688 -10.01,2.9102 -1.91,1.9453 -2.86,5.2656 -2.86,9.9609 v 25.9571 c 0,4.6992 0.95,8.0195 2.86,9.9609 1.91,1.9336 5.25,2.9101 10.01,2.9101 h 32.23 c 4.77,0 8.11,-0.9765 10.01,-2.9101 1.9,-1.9414 2.86,-5.2617 2.86,-9.9609 V 42.2344" /></g></g></svg>